<svg id="ae4c8077-2dd6-4542-808d-c15444d53e64" data-name="Livello 1" xmlns="http://www.w3.org/2000/svg" viewBox="0 0 1558.18 1158.13"><defs><style>.ac1866ab-332e-4caa-9fad-fdad030ac51b,.b6395213-9329-474d-b169-b59cf594f277,.b82b2e37-3be7-4018-a929-b7f16ca57237,.ec05a71a-799c-43f7-9731-a3f9855b681c,.f5de2a6f-233b-4384-a941-a16149659f19{fill:none;}.ac1866ab-332e-4caa-9fad-fdad030ac51b,.ac92dd45-ce9b-4dff-bece-79473169c1a0,.b6395213-9329-474d-b169-b59cf594f277,.b82b2e37-3be7-4018-a929-b7f16ca57237,.bdb794c9-e8a1-4969-86d9-74c3e25b7516,.bdf79252-4e56-43bc-83f4-50b960cf52e9,.ec05a71a-799c-43f7-9731-a3f9855b681c,.f0e3a07f-811c-47d3-afb7-b595f521e570,.f5de2a6f-233b-4384-a941-a16149659f19{stroke:#000;}.ec05a71a-799c-43f7-9731-a3f9855b681c{stroke-linecap:round;}.b82b2e37-3be7-4018-a929-b7f16ca57237,.ec05a71a-799c-43f7-9731-a3f9855b681c{stroke-linejoin:round;}.b6395213-9329-474d-b169-b59cf594f277,.b82b2e37-3be7-4018-a929-b7f16ca57237,.ec05a71a-799c-43f7-9731-a3f9855b681c{stroke-width:12px;}.ac1866ab-332e-4caa-9fad-fdad030ac51b,.ac92dd45-ce9b-4dff-bece-79473169c1a0,.b6395213-9329-474d-b169-b59cf594f277,.bdb794c9-e8a1-4969-86d9-74c3e25b7516,.bdf79252-4e56-43bc-83f4-50b960cf52e9,.f0e3a07f-811c-47d3-afb7-b595f521e570,.f5de2a6f-233b-4384-a941-a16149659f19{stroke-miterlimit:10;}.ac1866ab-332e-4caa-9fad-fdad030ac51b{stroke-width:5.68px;}.f5de2a6f-233b-4384-a941-a16149659f19{stroke-width:11.36px;}.b6395213-9329-474d-b169-b59cf594f277,.b82b2e37-3be7-4018-a929-b7f16ca57237{stroke-linecap:square;}.f0e3a07f-811c-47d3-afb7-b595f521e570{stroke-width:2.22px;}.ac92dd45-ce9b-4dff-bece-79473169c1a0{font-size:111px;}.ac92dd45-ce9b-4dff-bece-79473169c1a0,.bdb794c9-e8a1-4969-86d9-74c3e25b7516,.bdf79252-4e56-43bc-83f4-50b960cf52e9{font-family:HelveticaNeue-Medium, Helvetica Neue;font-weight:500;}.bdb794c9-e8a1-4969-86d9-74c3e25b7516,.bdf79252-4e56-43bc-83f4-50b960cf52e9{font-size:130px;}.bdb794c9-e8a1-4969-86d9-74c3e25b7516{letter-spacing:0.1em;}</style></defs><title>mentil_nicotinato-molecola-bolded_wikipedia</title><polyline class="ec05a71a-799c-43f7-9731-a3f9855b681c" points="119.22 1017.01 6.98 952.87 6 732.5 196.36 621.46 387.7 730.8 388.68 951.17 270.85 1019.9"/><path class="ac1866ab-332e-4caa-9fad-fdad030ac51b" d="M465.09,719" transform="translate(-156.2 -74.77)"/><polygon class="ec05a71a-799c-43f7-9731-a3f9855b681c" points="1356.98 615.95 1166.63 726.99 975.29 617.65 974.31 397.28 1164.66 286.25 1356 395.58 1356.98 615.95"/><polyline class="ec05a71a-799c-43f7-9731-a3f9855b681c" points="394.11 726.98 577.88 619.78 714.42 697.8"/><path class="f5de2a6f-233b-4384-a941-a16149659f19" d="M993.27,719.76" transform="translate(-156.2 -74.77)"/><line class="b6395213-9329-474d-b169-b59cf594f277" x1="560.72" y1="456.06" x2="560.72" y2="626.13"/><line class="b6395213-9329-474d-b169-b59cf594f277" x1="594.74" y1="456.06" x2="594.74" y2="626.13"/><polygon class="f0e3a07f-811c-47d3-afb7-b595f521e570" points="1164.62 120.94 1184.47 120.94 1174.55 197.47 1164.62 274.01 1154.7 197.47 1144.78 120.94 1164.62 120.94"/><text class="ac92dd45-ce9b-4dff-bece-79473169c1a0" transform="translate(534.23 427.38)">O</text><text class="ac92dd45-ce9b-4dff-bece-79473169c1a0" transform="translate(155.4 1099.15)">N</text><text class="ac92dd45-ce9b-4dff-bece-79473169c1a0" transform="translate(800.32 1102.48)">H</text><text class="bdf79252-4e56-43bc-83f4-50b960cf52e9" transform="translate(880.46 1125.77) scale(0.58)">3</text><text class="ac92dd45-ce9b-4dff-bece-79473169c1a0" transform="translate(922.6 1102.48)">C</text><text class="ac92dd45-ce9b-4dff-bece-79473169c1a0" transform="translate(1319.22 1102.48)">CH</text><text class="bdb794c9-e8a1-4969-86d9-74c3e25b7516" transform="translate(1479.51 1125.77) scale(0.58)">3</text><circle class="ec05a71a-799c-43f7-9731-a3f9855b681c" cx="198.26" cy="837.85" r="149.24"/><text class="ac92dd45-ce9b-4dff-bece-79473169c1a0" transform="translate(1121.25 95.63)">CH</text><text class="bdb794c9-e8a1-4969-86d9-74c3e25b7516" transform="translate(1281.53 118.92) scale(0.58)">3</text><polygon class="f0e3a07f-811c-47d3-afb7-b595f521e570" points="834.21 704.97 823.68 688.15 893.83 655.97 963.98 623.79 904.35 672.79 844.73 721.79 834.21 704.97"/><text class="ac92dd45-ce9b-4dff-bece-79473169c1a0" transform="translate(730.69 764.24)">O</text><polyline class="ec05a71a-799c-43f7-9731-a3f9855b681c" points="1029.86 1033.2 1164.16 954.86 1299.15 1032"/><line class="b82b2e37-3be7-4018-a929-b7f16ca57237" x1="1127.66" y1="915.5" x2="1201.36" y2="915.5"/><line class="b82b2e37-3be7-4018-a929-b7f16ca57237" x1="1136.16" y1="876.13" x2="1192.85" y2="876.13"/><line class="b82b2e37-3be7-4018-a929-b7f16ca57237" x1="1144.66" y1="836.76" x2="1184.35" y2="836.76"/><line class="b82b2e37-3be7-4018-a929-b7f16ca57237" x1="1153.17" y1="797.39" x2="1175.85" y2="797.39"/><line class="b82b2e37-3be7-4018-a929-b7f16ca57237" x1="1161.67" y1="758.03" x2="1167.34" y2="758.03"/></svg>