<?xml version="1.0" encoding="UTF-8" standalone="no"?>
<svg
   xmlns:dc="http://purl.org/dc/elements/1.1/"
   xmlns:cc="http://creativecommons.org/ns#"
   xmlns:rdf="http://www.w3.org/1999/02/22-rdf-syntax-ns#"
   xmlns:svg="http://www.w3.org/2000/svg"
   xmlns="http://www.w3.org/2000/svg"
   xmlns:sodipodi="http://sodipodi.sourceforge.net/DTD/sodipodi-0.dtd"
   xmlns:inkscape="http://www.inkscape.org/namespaces/inkscape"
   viewBox="67.16 100.43 208.76 130.69"
   preserveAspectRatio="xMidYMid"
   width="100%"
   height="100%"
   id="svg2"
   version="1.1"
   inkscape:version="0.48.1 "
   sodipodi:docname="1,2,6-Trigalloyl glucose.svg">
  <metadata
     id="metadata354">
    <rdf:RDF>
      <cc:Work
         rdf:about="">
        <dc:format>image/svg+xml</dc:format>
        <dc:type
           rdf:resource="http://purl.org/dc/dcmitype/StillImage" />
      </cc:Work>
    </rdf:RDF>
  </metadata>
  <defs
     id="defs352" />
  <sodipodi:namedview
     pagecolor="#ffffff"
     bordercolor="#666666"
     borderopacity="1"
     objecttolerance="10"
     gridtolerance="10"
     guidetolerance="10"
     inkscape:pageopacity="0"
     inkscape:pageshadow="2"
     inkscape:window-width="640"
     inkscape:window-height="480"
     id="namedview350"
     showgrid="false"
     inkscape:zoom="1.9741373"
     inkscape:cx="104.38"
     inkscape:cy="65.345"
     inkscape:window-x="0"
     inkscape:window-y="0"
     inkscape:window-maximized="0"
     inkscape:current-layer="svg2" />
  <clipPath
     id="279">
    <rect
       x="0.3"
       y="0.3"
       width="539.4"
       height="719.15"
       id="rect5" />
  </clipPath>
  <g
     id="drawing"
     transform="matrix(0.96124092,0,0,0.96124092,6.60306,5.8925742)">
    <path
       style="fill:#ffffff;fill-opacity:0"
       d="m 67.160004,100.43 208.759996,0 0,130.69 -208.759996,0 z"
       id="rect8"
       inkscape:connector-curvature="0" />
    <g
       id="page"
       clip-path="url(#279)">
      <g
         id="g11">
        <g
           style="text-anchor:start"
           id="text13">
          <path
             d="m 174.32339,162.78368 c 0,-1.18815 0.31901,-2.11833 0.95704,-2.79053 0.63801,-0.67219 1.46158,-1.00829 2.4707,-1.0083 0.6608,1e-5 1.2565,0.15788 1.78711,0.47363 0.53059,0.31576 0.93505,0.75603 1.21338,1.3208 0.27831,0.56479 0.41747,1.20525 0.41748,1.92139 -10e-6,0.72591 -0.14649,1.37533 -0.43946,1.94824 -0.29297,0.57292 -0.70801,1.00667 -1.24511,1.30127 -0.53712,0.2946 -1.11654,0.44189 -1.73828,0.44189 -0.67384,0 -1.27605,-0.16276 -1.80664,-0.48828 -0.5306,-0.32552 -0.93262,-0.76985 -1.20606,-1.333 -0.27344,-0.56315 -0.41016,-1.15886 -0.41016,-1.78711 z m 0.97657,0.0146 c 0,0.86264 0.23193,1.54216 0.6958,2.03858 0.46386,0.49642 1.04573,0.74463 1.7456,0.74463 0.71289,0 1.29964,-0.25065 1.76026,-0.75196 0.4606,-0.5013 0.69091,-1.21256 0.69092,-2.13378 -1e-5,-0.58268 -0.0985,-1.09131 -0.29541,-1.52588 -0.19695,-0.43457 -0.48504,-0.77148 -0.86426,-1.01075 -0.37924,-0.23925 -0.80486,-0.35888 -1.27686,-0.35888 -0.67057,0 -1.24756,0.23031 -1.73096,0.69092 -0.4834,0.46061 -0.72509,1.22966 -0.72509,2.30712 z"
             style="font-size:10px;fill:#000000;font-family:Arial"
             id="path3333"
             inkscape:connector-curvature="0" />
        </g>
      </g>
      <g
         id="Solid">
        <path
           d="m 164.98,169.99 0,0 0.3,-0.19 0.3,0.17 0,14.06 -0.3,0.17 -0.3,0.17 z"
           shape-rendering="geometricPrecision"
           id="path18"
           inkscape:connector-curvature="0"
           style="fill:#000000;fill-rule:evenodd;stroke:#000000;stroke-width:0;stroke-linejoin:miter" />
      </g>
      <g
         id="g20">
        <path
           d="m 164.98,184.37 0,0 0.3,-0.17 0.3,-0.17 12.17,7.02 0,0.35 -0.31,0.17 z"
           shape-rendering="geometricPrecision"
           id="path22"
           inkscape:connector-curvature="0"
           style="fill:#000000;fill-rule:evenodd;stroke:#000000;stroke-width:0;stroke-linejoin:miter" />
      </g>
      <g
         id="g24">
        <path
           d="m 178.06,191.57 0,0 -0.31,-0.17 0,-0.35 12.17,-7.02 0.3,0.17 0.3,0.17 z"
           shape-rendering="geometricPrecision"
           id="path26"
           inkscape:connector-curvature="0"
           style="fill:#000000;fill-rule:evenodd;stroke:#000000;stroke-width:0;stroke-linejoin:miter" />
      </g>
      <g
         id="g28">
        <path
           d="m 190.52,184.37 0,0 -0.3,-0.17 -0.3,-0.17 0,-14.06 0.3,-0.17 0.3,0.19 z"
           shape-rendering="geometricPrecision"
           id="path30"
           inkscape:connector-curvature="0"
           style="fill:#000000;fill-rule:evenodd;stroke:#000000;stroke-width:0;stroke-linejoin:miter" />
      </g>
      <g
         id="g32">
        <path
           d="m 190.21,169.45 0,0 0.01,0.35 -0.3,0.17 -7.68,-4.43 0.15,-0.26 0.15,-0.26 z"
           shape-rendering="geometricPrecision"
           id="path34"
           inkscape:connector-curvature="0"
           style="fill:#000000;fill-rule:evenodd;stroke:#000000;stroke-width:0;stroke-linejoin:miter" />
      </g>
      <g
         id="g36">
        <path
           d="m 173.06,164.96 0,0 0.15,0.26 0.15,0.26 -7.78,4.49 -0.3,-0.17 0.01,-0.35 z"
           shape-rendering="geometricPrecision"
           id="path38"
           inkscape:connector-curvature="0"
           style="fill:#000000;fill-rule:evenodd;stroke:#000000;stroke-width:0;stroke-linejoin:miter" />
      </g>
      <g
         id="g40">
        <g
           style="text-anchor:start"
           id="text42">
          <path
             d="m 199.2234,162.81367 c 0,-1.18814 0.31901,-2.11832 0.95704,-2.79052 0.63801,-0.6722 1.46158,-1.0083 2.4707,-1.0083 0.6608,0 1.2565,0.15788 1.78711,0.47363 0.53059,0.31576 0.93505,0.75603 1.21338,1.3208 0.27831,0.56478 0.41747,1.20525 0.41748,1.92139 -1e-5,0.72591 -0.14649,1.37532 -0.43946,1.94824 -0.29297,0.57292 -0.70801,1.00667 -1.24511,1.30127 -0.53712,0.2946 -1.11654,0.44189 -1.73828,0.44189 -0.67384,0 -1.27605,-0.16276 -1.80665,-0.48828 -0.5306,-0.32552 -0.93261,-0.76985 -1.20605,-1.33301 -0.27344,-0.56314 -0.41016,-1.15885 -0.41016,-1.78711 z m 0.97657,0.0146 c -1e-5,0.86264 0.23193,1.54216 0.6958,2.03858 0.46386,0.49642 1.04573,0.74463 1.7456,0.74463 0.71289,0 1.29964,-0.25065 1.76026,-0.75196 0.4606,-0.5013 0.69091,-1.21256 0.69091,-2.13379 0,-0.58267 -0.0985,-1.0913 -0.29541,-1.52587 -0.19694,-0.43457 -0.48503,-0.77148 -0.86425,-1.01075 -0.37924,-0.23925 -0.80486,-0.35888 -1.27686,-0.35888 -0.67058,0 -1.24756,0.23031 -1.73096,0.69091 -0.4834,0.46062 -0.7251,1.22966 -0.72509,2.30713 z"
             style="font-size:10px;fill:#000000;font-family:Arial"
             id="path3336"
             inkscape:connector-curvature="0" />
        </g>
      </g>
      <g
         id="WedgeBegin">
        <path
           d="m 190.52,169.99 0,0 -0.3,-0.19 -0.01,-0.35 6.95,-5.39 0.75,1.3 0.75,1.3 z"
           shape-rendering="geometricPrecision"
           id="path47"
           inkscape:connector-curvature="0"
           style="fill:#000000;fill-rule:evenodd;stroke:#000000;stroke-width:0;stroke-linejoin:miter" />
      </g>
      <g
         id="g49">
        <g
           style="text-anchor:start"
           id="text51">
          <path
             d="m 199.2234,191.56367 c 0,-1.18814 0.31901,-2.11832 0.95704,-2.79052 0.63801,-0.6722 1.46158,-1.0083 2.4707,-1.0083 0.6608,0 1.2565,0.15788 1.78711,0.47363 0.53059,0.31576 0.93505,0.75603 1.21338,1.3208 0.27831,0.56478 0.41747,1.20525 0.41748,1.92139 -1e-5,0.72591 -0.14649,1.37532 -0.43946,1.94824 -0.29297,0.57292 -0.70801,1.00667 -1.24511,1.30127 -0.53712,0.2946 -1.11654,0.44189 -1.73828,0.44189 -0.67384,0 -1.27605,-0.16276 -1.80665,-0.48828 -0.5306,-0.32552 -0.93261,-0.76985 -1.20605,-1.33301 -0.27344,-0.56314 -0.41016,-1.15885 -0.41016,-1.78711 z m 0.97657,0.0146 c -1e-5,0.86264 0.23193,1.54216 0.6958,2.03858 0.46386,0.49642 1.04573,0.74463 1.7456,0.74463 0.71289,0 1.29964,-0.25065 1.76026,-0.75196 0.4606,-0.5013 0.69091,-1.21256 0.69091,-2.13379 0,-0.58267 -0.0985,-1.0913 -0.29541,-1.52587 -0.19694,-0.43457 -0.48503,-0.77148 -0.86425,-1.01075 -0.37924,-0.23925 -0.80486,-0.35888 -1.27686,-0.35888 -0.67058,0 -1.24756,0.23031 -1.73096,0.69091 -0.4834,0.46062 -0.7251,1.22966 -0.72509,2.30713 z"
             style="font-size:10px;fill:#000000;font-family:Arial"
             id="path3339"
             inkscape:connector-curvature="0" />
        </g>
      </g>
      <g
         id="Wedged Hash Begin Bond">
        <path
           d="m 190.07,184.46 0,0 0.3,-0.52 0.56,0.23 -0.38,0.66 z"
           shape-rendering="geometricPrecision"
           id="path56"
           inkscape:connector-curvature="0"
           style="fill:#000000;fill-rule:evenodd;stroke:#000000;stroke-width:0;stroke-linejoin:miter" />
        <path
           d="m 192.28,186.16 0,0 0.67,-1.16 0.56,0.23 -0.76,1.3 z"
           shape-rendering="geometricPrecision"
           id="path58"
           inkscape:connector-curvature="0"
           style="fill:#000000;fill-rule:evenodd;stroke:#000000;stroke-width:0;stroke-linejoin:miter" />
        <path
           d="m 194.48,187.86 0,0 1.05,-1.81 0.56,0.23 -1.13,1.95 z"
           shape-rendering="geometricPrecision"
           id="path60"
           inkscape:connector-curvature="0"
           style="fill:#000000;fill-rule:evenodd;stroke:#000000;stroke-width:0;stroke-linejoin:miter" />
        <path
           d="m 196.69,189.57 0,0 1.41,-2.46 0.56,0.23 -1.5,2.6 z"
           shape-rendering="geometricPrecision"
           id="path62"
           inkscape:connector-curvature="0"
           style="fill:#000000;fill-rule:evenodd;stroke:#000000;stroke-width:0;stroke-linejoin:miter" />
      </g>
      <g
         id="g64">
        <g
           style="text-anchor:end"
           id="text66">
          <path
             d="m 142.56078,195.05 0,-7.1582 0.94726,0 0,2.93945 3.7207,0 0,-2.93945 0.94727,0 0,7.1582 -0.94727,0 0,-3.37402 -3.7207,0 0,3.37402 z"
             style="font-size:10px;fill:#000000;font-family:Arial"
             id="path3342"
             inkscape:connector-curvature="0" />
          <path
             d="m 149.46996,191.56367 c -10e-6,-1.18814 0.31901,-2.11832 0.95703,-2.79052 0.63802,-0.6722 1.46158,-1.0083 2.4707,-1.0083 0.6608,0 1.25651,0.15788 1.78711,0.47363 0.53059,0.31576 0.93505,0.75603 1.21338,1.3208 0.27831,0.56478 0.41747,1.20525 0.41748,1.92139 -1e-5,0.72591 -0.14649,1.37532 -0.43945,1.94824 -0.29298,0.57292 -0.70802,1.00667 -1.24512,1.30127 -0.53712,0.2946 -1.11654,0.44189 -1.73828,0.44189 -0.67383,0 -1.27605,-0.16276 -1.80664,-0.48828 -0.5306,-0.32552 -0.93262,-0.76985 -1.20606,-1.33301 -0.27344,-0.56314 -0.41016,-1.15885 -0.41015,-1.78711 z m 0.97656,0.0146 c 0,0.86264 0.23193,1.54216 0.6958,2.03858 0.46386,0.49642 1.04573,0.74463 1.7456,0.74463 0.71289,0 1.29964,-0.25065 1.76026,-0.75196 0.4606,-0.5013 0.69091,-1.21256 0.69092,-2.13379 -1e-5,-0.58267 -0.0985,-1.0913 -0.29541,-1.52587 -0.19695,-0.43457 -0.48504,-0.77148 -0.86426,-1.01075 -0.37924,-0.23925 -0.80486,-0.35888 -1.27686,-0.35888 -0.67057,0 -1.24756,0.23031 -1.73095,0.69091 -0.4834,0.46062 -0.7251,1.22966 -0.7251,2.30713 z"
             style="font-size:10px;fill:#000000;font-family:Arial"
             id="path3344"
             inkscape:connector-curvature="0" />
        </g>
      </g>
      <g
         id="g70">
        <path
           d="m 165.13,183.94 0,0 0.3,0.52 -0.48,0.37 -0.38,-0.66 z"
           shape-rendering="geometricPrecision"
           id="path72"
           inkscape:connector-curvature="0"
           style="fill:#000000;fill-rule:evenodd;stroke:#000000;stroke-width:0;stroke-linejoin:miter" />
        <path
           d="m 162.59,184.98 0,0 0.67,1.16 -0.48,0.37 -0.75,-1.3 z"
           shape-rendering="geometricPrecision"
           id="path74"
           inkscape:connector-curvature="0"
           style="fill:#000000;fill-rule:evenodd;stroke:#000000;stroke-width:0;stroke-linejoin:miter" />
        <path
           d="m 160.04,186.02 0,0 1.05,1.81 -0.48,0.37 -1.13,-1.96 z"
           shape-rendering="geometricPrecision"
           id="path76"
           inkscape:connector-curvature="0"
           style="fill:#000000;fill-rule:evenodd;stroke:#000000;stroke-width:0;stroke-linejoin:miter" />
        <path
           d="m 157.5,187.05 0,0 1.41,2.46 -0.47,0.37 -1.5,-2.6 z"
           shape-rendering="geometricPrecision"
           id="path78"
           inkscape:connector-curvature="0"
           style="fill:#000000;fill-rule:evenodd;stroke:#000000;stroke-width:0;stroke-linejoin:miter" />
      </g>
      <g
         id="g80">
        <path
           d="m 165.29,169.45 0,0 -0.01,0.35 -0.3,0.19 -13.38,-6.29 1.25,-1.07 1.16,-1.02 z"
           shape-rendering="geometricPrecision"
           id="path82"
           inkscape:connector-curvature="0"
           style="fill:#000000;fill-rule:evenodd;stroke:#000000;stroke-width:0;stroke-linejoin:miter" />
      </g>
      <g
         id="g84">
        <g
           style="text-anchor:start"
           id="text86">
          <path
             d="m 174.32339,205.93367 c 0,-1.18815 0.31901,-2.11832 0.95704,-2.79053 0.63801,-0.67219 1.46158,-1.00829 2.4707,-1.0083 0.6608,1e-5 1.2565,0.15789 1.78711,0.47363 0.53059,0.31577 0.93505,0.75603 1.21338,1.32081 0.27831,0.56478 0.41747,1.20524 0.41748,1.92138 -10e-6,0.72592 -0.14649,1.37533 -0.43946,1.94824 -0.29297,0.57292 -0.70801,1.00668 -1.24511,1.30127 -0.53712,0.2946 -1.11654,0.4419 -1.73828,0.4419 -0.67384,0 -1.27605,-0.16276 -1.80664,-0.48828 -0.5306,-0.32552 -0.93262,-0.76986 -1.20606,-1.33301 -0.27344,-0.56315 -0.41016,-1.15885 -0.41016,-1.78711 z m 0.97657,0.0146 c 0,0.86263 0.23193,1.54216 0.6958,2.03857 0.46386,0.49642 1.04573,0.74463 1.7456,0.74463 0.71289,0 1.29964,-0.25065 1.76026,-0.75195 0.4606,-0.5013 0.69091,-1.21256 0.69092,-2.13379 -1e-5,-0.58268 -0.0985,-1.0913 -0.29541,-1.52588 -0.19695,-0.43456 -0.48504,-0.77148 -0.86426,-1.01074 -0.37924,-0.23925 -0.80486,-0.35888 -1.27686,-0.35889 -0.67057,1e-5 -1.24756,0.23031 -1.73096,0.69092 -0.4834,0.46062 -0.72509,1.22966 -0.72509,2.30713 z"
             style="font-size:10px;fill:#000000;font-family:Arial"
             id="path3347"
             inkscape:connector-curvature="0" />
          <path
             d="m 182.41422,209.42 0,-7.1582 0.94726,0 0,2.93945 3.7207,0 0,-2.93945 0.94727,0 0,7.1582 -0.94727,0 0,-3.37403 -3.7207,0 0,3.37403 z"
             style="font-size:10px;fill:#000000;font-family:Arial"
             id="path3349"
             inkscape:connector-curvature="0" />
        </g>
      </g>
      <g
         id="g90">
        <path
           d="m 177.44,191.57 0,0 0.31,-0.17 0.31,0.17 1.19,9.03 -1.5,0 -1.5,0 z"
           shape-rendering="geometricPrecision"
           id="path92"
           inkscape:connector-curvature="0"
           style="fill:#000000;fill-rule:evenodd;stroke:#000000;stroke-width:0;stroke-linejoin:miter" />
      </g>
      <g
         id="g94">
        <g
           style="text-anchor:start"
           id="text96">
          <path
             d="m 137.0034,169.98367 c 0,-1.18814 0.31901,-2.11832 0.95703,-2.79052 0.63802,-0.6722 1.46159,-1.0083 2.47071,-1.00831 0.6608,1e-5 1.2565,0.15789 1.78711,0.47364 0.53059,0.31576 0.93505,0.75603 1.21338,1.3208 0.27831,0.56478 0.41747,1.20524 0.41748,1.92139 -1e-5,0.72591 -0.1465,1.37532 -0.43946,1.94824 -0.29297,0.57292 -0.70801,1.00667 -1.24511,1.30127 -0.53712,0.29459 -1.11655,0.44189 -1.73829,0.44189 -0.67383,0 -1.27604,-0.16276 -1.80664,-0.48828 -0.5306,-0.32552 -0.93261,-0.76986 -1.20605,-1.33301 -0.27344,-0.56315 -0.41016,-1.15885 -0.41016,-1.78711 z m 0.97657,0.0147 c -1e-5,0.86263 0.23193,1.54216 0.6958,2.03858 0.46386,0.49642 1.04573,0.74463 1.7456,0.74462 0.71289,1e-5 1.29964,-0.25065 1.76026,-0.75195 0.4606,-0.5013 0.69091,-1.21256 0.69091,-2.13379 0,-0.58268 -0.0985,-1.0913 -0.29541,-1.52588 -0.19694,-0.43456 -0.48503,-0.77147 -0.86425,-1.01074 -0.37924,-0.23925 -0.80486,-0.35888 -1.27686,-0.35889 -0.67058,1e-5 -1.24756,0.23032 -1.73096,0.69092 -0.4834,0.46062 -0.7251,1.22966 -0.72509,2.30713 z"
             style="font-size:10px;fill:#000000;font-family:Arial"
             id="path3352"
             inkscape:connector-curvature="0" />
        </g>
      </g>
      <g
         id="g100">
        <path
           d="m 154.01,161.61 0,0 -1.16,1.02 -1.25,1.07 -6.46,3.73 -0.15,-0.26 -0.15,-0.26 z"
           shape-rendering="geometricPrecision"
           id="path102"
           inkscape:connector-curvature="0"
           style="fill:#000000;fill-rule:evenodd;stroke:#000000;stroke-width:0;stroke-linejoin:miter" />
      </g>
      <g
         id="g104">
        <path
           d="m 202.95,157.5 0,0 -0.3,0 -0.3,0 0,-9.4 0.3,0.17 0.3,0.17 z"
           shape-rendering="geometricPrecision"
           id="path106"
           inkscape:connector-curvature="0"
           style="fill:#000000;fill-rule:evenodd;stroke:#000000;stroke-width:0;stroke-linejoin:miter" />
      </g>
      <g
         id="g108">
        <path
           d="m 202.95,148.44 0,0 -0.3,-0.17 -0.3,-0.17 12.43,-7.17 0.3,0.17 0,0.35 z"
           shape-rendering="geometricPrecision"
           id="path110"
           inkscape:connector-curvature="0"
           style="fill:#000000;fill-rule:evenodd;stroke:#000000;stroke-width:0;stroke-linejoin:miter" />
      </g>
      <g
         id="g112">
        <g
           style="text-anchor:start"
           id="text114">
          <path
             d="m 186.7934,141.28368 c 0,-1.18815 0.31901,-2.11833 0.95703,-2.79053 0.63802,-0.67219 1.46158,-1.00829 2.4707,-1.0083 0.6608,1e-5 1.25651,0.15788 1.78711,0.47363 0.53059,0.31576 0.93505,0.75603 1.21338,1.3208 0.27831,0.56479 0.41747,1.20525 0.41748,1.92139 -1e-5,0.72591 -0.14649,1.37533 -0.43945,1.94824 -0.29298,0.57292 -0.70802,1.00667 -1.24512,1.30127 -0.53712,0.2946 -1.11654,0.44189 -1.73828,0.44189 -0.67383,0 -1.27605,-0.16276 -1.80664,-0.48828 -0.5306,-0.32552 -0.93262,-0.76985 -1.20606,-1.333 -0.27344,-0.56315 -0.41015,-1.15886 -0.41015,-1.78711 z m 0.97656,0.0146 c 0,0.86264 0.23193,1.54216 0.6958,2.03858 0.46386,0.49642 1.04573,0.74463 1.7456,0.74463 0.71289,0 1.29964,-0.25065 1.76026,-0.75196 0.4606,-0.5013 0.69091,-1.21256 0.69092,-2.13378 -1e-5,-0.58268 -0.0985,-1.09131 -0.29541,-1.52588 -0.19695,-0.43457 -0.48504,-0.77148 -0.86426,-1.01075 -0.37924,-0.23925 -0.80486,-0.35888 -1.27686,-0.35888 -0.67057,0 -1.24756,0.23031 -1.73095,0.69092 -0.4834,0.46061 -0.7251,1.22966 -0.7251,2.30712 z"
             style="font-size:10px;fill:#000000;font-family:Arial"
             id="path3355"
             inkscape:connector-curvature="0" />
        </g>
      </g>
      <g
         id="g118">
        <path
           style="stroke:#000000;stroke-width:0.60000002"
           d="m 202,149.39 -7.56,-4.36"
           id="line120"
           inkscape:connector-curvature="0" />
        <path
           d="m 203.34,147.52 0,0 0.6,-0.34 -8.06,-4.65 -0.3,0.52 z"
           shape-rendering="geometricPrecision"
           id="path122"
           inkscape:connector-curvature="0"
           style="fill:#000000;fill-rule:evenodd;stroke:#000000;stroke-width:0;stroke-linejoin:miter" />
        <path
           d="m 202.35,149.93 0,0 0,-0.69 -7.76,-4.47 -0.3,0.52 z"
           shape-rendering="geometricPrecision"
           id="path124"
           inkscape:connector-curvature="0"
           style="fill:#000000;fill-rule:evenodd;stroke:#000000;stroke-width:0;stroke-linejoin:miter" />
      </g>
      <g
         id="g126">
        <path
           d="m 136.06,166.94 0,0 -0.15,0.26 -0.15,0.26 -7.76,-4.48 0,-0.35 0,-0.35 z"
           shape-rendering="geometricPrecision"
           id="path128"
           inkscape:connector-curvature="0"
           style="fill:#000000;fill-rule:evenodd;stroke:#000000;stroke-width:0;stroke-linejoin:miter" />
      </g>
      <g
         id="g130">
        <path
           d="m 128,162.28 0,0 0,0.35 0,0.35 -12.13,6.99 -0.3,-0.17 0,-0.35 z"
           shape-rendering="geometricPrecision"
           id="path132"
           inkscape:connector-curvature="0"
           style="fill:#000000;fill-rule:evenodd;stroke:#000000;stroke-width:0;stroke-linejoin:miter" />
      </g>
      <g
         id="g134">
        <g
           style="text-anchor:start"
           id="text136">
          <path
             d="m 124.57339,148.46367 c 0,-1.18815 0.31901,-2.11832 0.95704,-2.79053 0.63801,-0.67219 1.46158,-1.00829 2.4707,-1.0083 0.6608,1e-5 1.2565,0.15789 1.78711,0.47363 0.53059,0.31577 0.93505,0.75603 1.21338,1.3208 0.27831,0.56479 0.41747,1.20525 0.41748,1.92139 -10e-6,0.72592 -0.14649,1.37533 -0.43946,1.94824 -0.29297,0.57292 -0.70801,1.00668 -1.24511,1.30127 -0.53712,0.2946 -1.11654,0.4419 -1.73828,0.4419 -0.67384,0 -1.27605,-0.16276 -1.80664,-0.48828 -0.5306,-0.32552 -0.93262,-0.76986 -1.20606,-1.33301 -0.27344,-0.56315 -0.41016,-1.15885 -0.41016,-1.78711 z m 0.97657,0.0146 c 0,0.86263 0.23193,1.54215 0.6958,2.03857 0.46386,0.49642 1.04573,0.74463 1.7456,0.74463 0.71289,0 1.29964,-0.25065 1.76026,-0.75195 0.4606,-0.5013 0.69091,-1.21257 0.69092,-2.13379 -1e-5,-0.58268 -0.0985,-1.09131 -0.29541,-1.52588 -0.19695,-0.43457 -0.48504,-0.77148 -0.86426,-1.01074 -0.37924,-0.23925 -0.80486,-0.35888 -1.27686,-0.35889 -0.67057,1e-5 -1.24756,0.23031 -1.73096,0.69092 -0.4834,0.46062 -0.72509,1.22966 -0.72509,2.30713 z"
             style="font-size:10px;fill:#000000;font-family:Arial"
             id="path3359"
             inkscape:connector-curvature="0" />
        </g>
      </g>
      <g
         id="g140">
        <path
           style="stroke:#000000;stroke-width:0.60000002"
           d="m 126.71,162.63 0,-8.93"
           id="line142"
           inkscape:connector-curvature="0" />
        <path
           d="m 128.99,162.86 0,0 0.6,0.34 0,-9.5 -0.6,0 z"
           shape-rendering="geometricPrecision"
           id="path144"
           inkscape:connector-curvature="0"
           style="fill:#000000;fill-rule:evenodd;stroke:#000000;stroke-width:0;stroke-linejoin:miter" />
        <path
           d="m 126.41,163.2 0,0 0.6,-0.34 0,-9.16 -0.6,0 z"
           shape-rendering="geometricPrecision"
           id="path146"
           inkscape:connector-curvature="0"
           style="fill:#000000;fill-rule:evenodd;stroke:#000000;stroke-width:0;stroke-linejoin:miter" />
      </g>
      <g
         id="g148">
        <path
           d="m 207.34,189.01 0,0 -0.15,-0.26 -0.15,-0.26 8.04,-4.64 0,0.35 0,0.35 z"
           shape-rendering="geometricPrecision"
           id="path150"
           inkscape:connector-curvature="0"
           style="fill:#000000;fill-rule:evenodd;stroke:#000000;stroke-width:0;stroke-linejoin:miter" />
      </g>
      <g
         id="g152">
        <path
           d="m 215.08,184.55 0,0 0,-0.35 0,-0.35 12.42,7.17 0,0.35 -0.3,0.17 z"
           shape-rendering="geometricPrecision"
           id="path154"
           inkscape:connector-curvature="0"
           style="fill:#000000;fill-rule:evenodd;stroke:#000000;stroke-width:0;stroke-linejoin:miter" />
      </g>
      <g
         id="g156">
        <g
           style="text-anchor:start"
           id="text158">
          <path
             d="m 211.6534,170.03368 c 0,-1.18815 0.31901,-2.11833 0.95703,-2.79053 0.63802,-0.67219 1.46158,-1.00829 2.4707,-1.0083 0.6608,1e-5 1.25651,0.15788 1.78711,0.47363 0.53059,0.31576 0.93505,0.75603 1.21338,1.3208 0.27831,0.56479 0.41747,1.20525 0.41748,1.92139 -1e-5,0.72591 -0.14649,1.37533 -0.43945,1.94824 -0.29298,0.57292 -0.70802,1.00667 -1.24512,1.30127 -0.53712,0.2946 -1.11654,0.44189 -1.73828,0.44189 -0.67383,0 -1.27605,-0.16276 -1.80664,-0.48828 -0.5306,-0.32552 -0.93262,-0.76985 -1.20606,-1.333 -0.27344,-0.56315 -0.41015,-1.15886 -0.41015,-1.78711 z m 0.97656,0.0146 c 0,0.86264 0.23193,1.54216 0.6958,2.03858 0.46386,0.49642 1.04573,0.74463 1.74561,0.74463 0.71288,0 1.29963,-0.25065 1.76025,-0.75196 0.46061,-0.5013 0.69091,-1.21256 0.69092,-2.13378 -1e-5,-0.58268 -0.0985,-1.09131 -0.29541,-1.52588 -0.19695,-0.43457 -0.48503,-0.77148 -0.86426,-1.01075 -0.37924,-0.23925 -0.80486,-0.35888 -1.27686,-0.35888 -0.67057,0 -1.24756,0.23031 -1.73095,0.69092 -0.4834,0.46061 -0.7251,1.22966 -0.7251,2.30712 z"
             style="font-size:10px;fill:#000000;font-family:Arial"
             id="path3363"
             inkscape:connector-curvature="0" />
        </g>
      </g>
      <g
         id="g162">
        <path
           style="stroke:#000000;stroke-width:0.60000002"
           d="m 213.78999,184.2 0,-8.9"
           id="line164"
           inkscape:connector-curvature="0" />
        <path
           d="m 216.07,184.43 0,0 0.6,0.34 0,-9.47 -0.6,0 z"
           shape-rendering="geometricPrecision"
           id="path166"
           inkscape:connector-curvature="0"
           style="fill:#000000;fill-rule:evenodd;stroke:#000000;stroke-width:0;stroke-linejoin:miter" />
        <path
           d="m 213.49,184.77 0,0 0.6,-0.34 0,-9.13 -0.6,0 z"
           shape-rendering="geometricPrecision"
           id="path168"
           inkscape:connector-curvature="0"
           style="fill:#000000;fill-rule:evenodd;stroke:#000000;stroke-width:0;stroke-linejoin:miter" />
      </g>
      <g
         id="g170">
        <path
           d="m 215.08,141.45 0,0 0,-0.35 0.3,-0.17 12.17,7.02 0,0.35 0,0.35 z"
           shape-rendering="geometricPrecision"
           id="path172"
           inkscape:connector-curvature="0"
           style="fill:#000000;fill-rule:evenodd;stroke:#000000;stroke-width:0;stroke-linejoin:miter" />
        <path
           style="stroke:#000000;stroke-width:0.60000002"
           d="m 217.67,139.60001 9.88,5.70999"
           id="line174"
           inkscape:connector-curvature="0" />
      </g>
      <g
         id="g176">
        <path
           d="m 227.55,148.65 0,0 0,-0.35 0,-0.35 12.17,-7.02 0.3,0.17 0,0.35 z"
           shape-rendering="geometricPrecision"
           id="path178"
           inkscape:connector-curvature="0"
           style="fill:#000000;fill-rule:evenodd;stroke:#000000;stroke-width:0;stroke-linejoin:miter" />
      </g>
      <g
         id="g180">
        <path
           d="m 240.32,140.93 0,0 -0.3,0.17 -0.3,-0.17 0,-14.06 0.3,-0.17 0.3,0.17 z"
           shape-rendering="geometricPrecision"
           id="path182"
           inkscape:connector-curvature="0"
           style="fill:#000000;fill-rule:evenodd;stroke:#000000;stroke-width:0;stroke-linejoin:miter" />
        <path
           style="stroke:#000000;stroke-width:0.60000002"
           d="m 237.42999,139.60001 0,-11.40001"
           id="line184"
           inkscape:connector-curvature="0" />
      </g>
      <g
         id="g186">
        <path
           d="m 240.02,126.35 0,0 0,0.35 -0.3,0.17 -12.17,-7.02 0,-0.35 0.3,-0.17 z"
           shape-rendering="geometricPrecision"
           id="path188"
           inkscape:connector-curvature="0"
           style="fill:#000000;fill-rule:evenodd;stroke:#000000;stroke-width:0;stroke-linejoin:miter" />
      </g>
      <g
         id="g190">
        <path
           d="m 227.25,119.33 0,0 0.3,0.17 0,0.35 -12.17,7.02 -0.3,-0.17 -0.3,-0.17 z"
           shape-rendering="geometricPrecision"
           id="path192"
           inkscape:connector-curvature="0"
           style="fill:#000000;fill-rule:evenodd;stroke:#000000;stroke-width:0;stroke-linejoin:miter" />
        <path
           style="stroke:#000000;stroke-width:0.60000002"
           d="m 227.55,122.49 -9.88,5.71"
           id="line194"
           inkscape:connector-curvature="0" />
      </g>
      <g
         id="g196">
        <path
           d="m 214.78,126.53 0,0 0.3,0.17 0.3,0.17 0,14.06 -0.3,0.17 -0.3,-0.17 z"
           shape-rendering="geometricPrecision"
           id="path198"
           inkscape:connector-curvature="0"
           style="fill:#000000;fill-rule:evenodd;stroke:#000000;stroke-width:0;stroke-linejoin:miter" />
      </g>
      <g
         id="g200">
        <path
           d="m 227.2,191.54 0,0 0.3,-0.17 0.3,0.17 0,14.06 -0.3,0.17 -0.3,0.17 z"
           shape-rendering="geometricPrecision"
           id="path202"
           inkscape:connector-curvature="0"
           style="fill:#000000;fill-rule:evenodd;stroke:#000000;stroke-width:0;stroke-linejoin:miter" />
        <path
           style="stroke:#000000;stroke-width:0.60000002"
           d="m 230.09,192.87 0,11.4"
           id="line204"
           inkscape:connector-curvature="0" />
      </g>
      <g
         id="g206">
        <path
           d="m 227.2,205.94 0,0 0.3,-0.17 0.3,-0.17 12.17,7.02 0,0.35 -0.3,0.17 z"
           shape-rendering="geometricPrecision"
           id="path208"
           inkscape:connector-curvature="0"
           style="fill:#000000;fill-rule:evenodd;stroke:#000000;stroke-width:0;stroke-linejoin:miter" />
      </g>
      <g
         id="g210">
        <path
           d="m 240.27,213.14 0,0 -0.3,-0.17 0,-0.35 12.17,-7.02 0.3,0.17 0,0.35 z"
           shape-rendering="geometricPrecision"
           id="path212"
           inkscape:connector-curvature="0"
           style="fill:#000000;fill-rule:evenodd;stroke:#000000;stroke-width:0;stroke-linejoin:miter" />
        <path
           style="stroke:#000000;stroke-width:0.60000002"
           d="m 239.97,209.98 9.88001,-5.71"
           id="line214"
           inkscape:connector-curvature="0" />
      </g>
      <g
         id="g216">
        <path
           d="m 252.74,205.6 0,0 -0.3,0.17 -0.3,-0.17 0,-14.06 0.3,-0.17 0.3,0.17 z"
           shape-rendering="geometricPrecision"
           id="path218"
           inkscape:connector-curvature="0"
           style="fill:#000000;fill-rule:evenodd;stroke:#000000;stroke-width:0;stroke-linejoin:miter" />
      </g>
      <g
         id="g220">
        <path
           d="m 252.44,191.02 0,0 0,0.35 -0.3,0.17 -12.17,-7.02 0,-0.35 0,-0.35 z"
           shape-rendering="geometricPrecision"
           id="path222"
           inkscape:connector-curvature="0"
           style="fill:#000000;fill-rule:evenodd;stroke:#000000;stroke-width:0;stroke-linejoin:miter" />
        <path
           style="stroke:#000000;stroke-width:0.60000002"
           d="M 249.85001,192.87 239.97,187.16"
           id="line224"
           inkscape:connector-curvature="0" />
      </g>
      <g
         id="g226">
        <path
           d="m 239.97,183.82 0,0 0,0.35 0,0.35 -12.17,7.02 -0.3,-0.17 0,-0.35 z"
           shape-rendering="geometricPrecision"
           id="path228"
           inkscape:connector-curvature="0"
           style="fill:#000000;fill-rule:evenodd;stroke:#000000;stroke-width:0;stroke-linejoin:miter" />
      </g>
      <g
         id="g230">
        <path
           d="m 115.57,169.45 0,0 0,0.35 -0.3,0.17 -12.17,-7.02 0,-0.35 0,-0.35 z"
           shape-rendering="geometricPrecision"
           id="path232"
           inkscape:connector-curvature="0"
           style="fill:#000000;fill-rule:evenodd;stroke:#000000;stroke-width:0;stroke-linejoin:miter" />
        <path
           style="stroke:#000000;stroke-width:0.60000002"
           d="m 112.98,171.3 -9.88,-5.71"
           id="line234"
           inkscape:connector-curvature="0" />
      </g>
      <g
         id="g236">
        <path
           d="m 103.1,162.25 0,0 0,0.35 0,0.35 -12.17,7.02 -0.3,-0.17 0,-0.35 z"
           shape-rendering="geometricPrecision"
           id="path238"
           inkscape:connector-curvature="0"
           style="fill:#000000;fill-rule:evenodd;stroke:#000000;stroke-width:0;stroke-linejoin:miter" />
      </g>
      <g
         id="g240">
        <path
           d="m 90.33,169.97 0,0 0.3,-0.17 0.3,0.17 0,14.06 -0.3,0.17 -0.3,-0.17 z"
           shape-rendering="geometricPrecision"
           id="path242"
           inkscape:connector-curvature="0"
           style="fill:#000000;fill-rule:evenodd;stroke:#000000;stroke-width:0;stroke-linejoin:miter" />
        <path
           style="stroke:#000000;stroke-width:0.60000002"
           d="m 93.220001,171.3 0,11.4"
           id="line244"
           inkscape:connector-curvature="0" />
      </g>
      <g
         id="g246">
        <path
           d="m 90.63,184.55 0,0 0,-0.35 0.3,-0.17 12.17,7.02 0,0.35 -0.3,0.17 z"
           shape-rendering="geometricPrecision"
           id="path248"
           inkscape:connector-curvature="0"
           style="fill:#000000;fill-rule:evenodd;stroke:#000000;stroke-width:0;stroke-linejoin:miter" />
      </g>
      <g
         id="g250">
        <path
           d="m 103.4,191.57 0,0 -0.3,-0.17 0,-0.35 12.17,-7.02 0.3,0.17 0.3,0.17 z"
           shape-rendering="geometricPrecision"
           id="path252"
           inkscape:connector-curvature="0"
           style="fill:#000000;fill-rule:evenodd;stroke:#000000;stroke-width:0;stroke-linejoin:miter" />
        <path
           style="stroke:#000000;stroke-width:0.60000002"
           d="m 103.1,188.41 9.88,-5.71"
           id="line254"
           inkscape:connector-curvature="0" />
      </g>
      <g
         id="g256">
        <path
           d="m 115.87,184.37 0,0 -0.3,-0.17 -0.3,-0.17 0,-14.06 0.3,-0.17 0.3,0.17 z"
           shape-rendering="geometricPrecision"
           id="path258"
           inkscape:connector-curvature="0"
           style="fill:#000000;fill-rule:evenodd;stroke:#000000;stroke-width:0;stroke-linejoin:miter" />
      </g>
      <g
         id="g260">
        <g
           style="text-anchor:start"
           id="text262">
          <path
             d="m 224.1234,105.34367 c 0,-1.18814 0.31901,-2.11832 0.95703,-2.79052 0.63802,-0.6722 1.46158,-1.0083 2.4707,-1.0083 0.6608,0 1.25651,0.15788 1.78711,0.47363 0.53059,0.31576 0.93505,0.75603 1.21338,1.3208 0.27831,0.56478 0.41747,1.20524 0.41748,1.92139 -1e-5,0.72591 -0.14649,1.37532 -0.43945,1.94824 -0.29298,0.57292 -0.70802,1.00667 -1.24512,1.30127 -0.53711,0.29459 -1.11654,0.44189 -1.73828,0.44189 -0.67383,0 -1.27604,-0.16276 -1.80664,-0.48828 -0.5306,-0.32552 -0.93262,-0.76985 -1.20606,-1.33301 -0.27343,-0.56315 -0.41015,-1.15885 -0.41015,-1.78711 z m 0.97656,0.0147 c 0,0.86263 0.23193,1.54216 0.6958,2.03858 0.46387,0.49642 1.04573,0.74463 1.74561,0.74463 0.71288,0 1.29963,-0.25065 1.76025,-0.75196 0.46061,-0.5013 0.69091,-1.21256 0.69092,-2.13379 -1e-5,-0.58268 -0.0985,-1.0913 -0.29541,-1.52588 -0.19695,-0.43456 -0.48503,-0.77147 -0.86426,-1.01074 -0.37924,-0.23925 -0.80485,-0.35888 -1.27685,-0.35888 -0.67058,0 -1.24757,0.23031 -1.73096,0.69091 -0.4834,0.46062 -0.7251,1.22966 -0.7251,2.30713 z"
             style="font-size:10px;fill:#000000;font-family:Arial"
             id="path3376"
             inkscape:connector-curvature="0" />
          <path
             d="m 232.21422,108.83 0,-7.1582 0.94726,0 0,2.93945 3.72071,0 0,-2.93945 0.94726,0 0,7.1582 -0.94726,0 0,-3.37402 -3.72071,0 0,3.37402 z"
             style="font-size:10px;fill:#000000;font-family:Arial"
             id="path3378"
             inkscape:connector-curvature="0" />
        </g>
      </g>
      <g
         id="g266">
        <path
           d="m 227.85,119.33 0,0 -0.3,0.17 -0.3,-0.17 0,-8.73 0.3,0 0.3,0 z"
           shape-rendering="geometricPrecision"
           id="path268"
           inkscape:connector-curvature="0"
           style="fill:#000000;fill-rule:evenodd;stroke:#000000;stroke-width:0;stroke-linejoin:miter" />
      </g>
      <g
         id="g270">
        <g
           style="text-anchor:start"
           id="text272">
          <path
             d="m 249.02339,119.71367 c 0,-1.18815 0.31901,-2.11832 0.95703,-2.79053 0.63802,-0.67219 1.46159,-1.00829 2.47071,-1.0083 0.6608,1e-5 1.2565,0.15789 1.78711,0.47363 0.53059,0.31577 0.93505,0.75603 1.21337,1.3208 0.27832,0.56479 0.41748,1.20525 0.41748,1.92139 0,0.72592 -0.14649,1.37533 -0.43945,1.94824 -0.29297,0.57292 -0.70801,1.00668 -1.24512,1.30127 -0.53711,0.2946 -1.11654,0.4419 -1.73828,0.4419 -0.67383,0 -1.27604,-0.16276 -1.80664,-0.48828 -0.5306,-0.32552 -0.93262,-0.76986 -1.20605,-1.33301 -0.27344,-0.56315 -0.41016,-1.15885 -0.41016,-1.78711 z m 0.97656,0.0147 c 0,0.86263 0.23194,1.54215 0.69581,2.03857 0.46386,0.49642 1.04573,0.74463 1.7456,0.74463 0.71289,0 1.29964,-0.25065 1.76025,-0.75195 0.46061,-0.5013 0.69092,-1.21257 0.69092,-2.13379 0,-0.58268 -0.0985,-1.09131 -0.29541,-1.52588 -0.19694,-0.43457 -0.48503,-0.77148 -0.86426,-1.01074 -0.37923,-0.23925 -0.80485,-0.35888 -1.27685,-0.35889 -0.67058,10e-6 -1.24756,0.23031 -1.73096,0.69092 -0.4834,0.46062 -0.7251,1.22966 -0.7251,2.30713 z"
             style="font-size:10px;fill:#000000;font-family:Arial"
             id="path3381"
             inkscape:connector-curvature="0" />
          <path
             d="m 257.11421,123.2 0,-7.15821 0.94727,0 0,2.93946 3.7207,0 0,-2.93946 0.94727,0 0,7.15821 -0.94727,0 0,-3.37403 -3.7207,0 0,3.37403 z"
             style="font-size:10px;fill:#000000;font-family:Arial"
             id="path3383"
             inkscape:connector-curvature="0" />
        </g>
      </g>
      <g
         id="g276">
        <path
           d="m 240.32,126.87 0,0 -0.3,-0.17 0,-0.35 7.74,-4.47 0.15,0.26 0.15,0.26 z"
           shape-rendering="geometricPrecision"
           id="path278"
           inkscape:connector-curvature="0"
           style="fill:#000000;fill-rule:evenodd;stroke:#000000;stroke-width:0;stroke-linejoin:miter" />
      </g>
      <g
         id="g280">
        <g
           style="text-anchor:start"
           id="text282">
          <path
             d="m 249.02339,148.46367 c 0,-1.18815 0.31901,-2.11832 0.95703,-2.79053 0.63802,-0.67219 1.46159,-1.00829 2.47071,-1.0083 0.6608,1e-5 1.2565,0.15789 1.78711,0.47363 0.53059,0.31577 0.93505,0.75603 1.21337,1.3208 0.27832,0.56479 0.41748,1.20525 0.41748,1.92139 0,0.72592 -0.14649,1.37533 -0.43945,1.94824 -0.29297,0.57292 -0.70801,1.00668 -1.24512,1.30127 -0.53711,0.2946 -1.11654,0.4419 -1.73828,0.4419 -0.67383,0 -1.27604,-0.16276 -1.80664,-0.48828 -0.5306,-0.32552 -0.93262,-0.76986 -1.20605,-1.33301 -0.27344,-0.56315 -0.41016,-1.15885 -0.41016,-1.78711 z m 0.97656,0.0146 c 0,0.86263 0.23194,1.54215 0.69581,2.03857 0.46386,0.49642 1.04573,0.74463 1.7456,0.74463 0.71289,0 1.29964,-0.25065 1.76025,-0.75195 0.46061,-0.5013 0.69092,-1.21257 0.69092,-2.13379 0,-0.58268 -0.0985,-1.09131 -0.29541,-1.52588 -0.19694,-0.43457 -0.48503,-0.77148 -0.86426,-1.01074 -0.37923,-0.23925 -0.80485,-0.35888 -1.27685,-0.35889 -0.67058,1e-5 -1.24756,0.23031 -1.73096,0.69092 -0.4834,0.46062 -0.7251,1.22966 -0.7251,2.30713 z"
             style="font-size:10px;fill:#000000;font-family:Arial"
             id="path3386"
             inkscape:connector-curvature="0" />
          <path
             d="m 257.11421,151.95 0,-7.15821 0.94727,0 0,2.93946 3.7207,0 0,-2.93946 0.94727,0 0,7.15821 -0.94727,0 0,-3.37403 -3.7207,0 0,3.37403 z"
             style="font-size:10px;fill:#000000;font-family:Arial"
             id="path3388"
             inkscape:connector-curvature="0" />
        </g>
      </g>
      <g
         id="g286">
        <path
           d="m 240.02,141.45 0,0 0,-0.35 0.3,-0.17 7.74,4.47 -0.15,0.26 -0.15,0.26 z"
           shape-rendering="geometricPrecision"
           id="path288"
           inkscape:connector-curvature="0"
           style="fill:#000000;fill-rule:evenodd;stroke:#000000;stroke-width:0;stroke-linejoin:miter" />
      </g>
      <g
         id="g290">
        <g
           style="text-anchor:start"
           id="text292">
          <path
             d="m 261.4534,184.38367 c 0,-1.18815 0.31901,-2.11832 0.95703,-2.79053 0.63802,-0.67219 1.46159,-1.00829 2.4707,-1.0083 0.66081,10e-6 1.25651,0.15788 1.78711,0.47363 0.5306,0.31576 0.93506,0.75603 1.21338,1.3208 0.27832,0.56479 0.41748,1.20525 0.41748,1.92139 0,0.72591 -0.14649,1.37533 -0.43945,1.94824 -0.29298,0.57292 -0.70801,1.00668 -1.24512,1.30127 -0.53711,0.2946 -1.11654,0.4419 -1.73828,0.4419 -0.67383,0 -1.27604,-0.16276 -1.80664,-0.48829 -0.5306,-0.32552 -0.93262,-0.76985 -1.20605,-1.333 -0.27344,-0.56315 -0.41016,-1.15885 -0.41016,-1.78711 z m 0.97656,0.0147 c 0,0.86263 0.23193,1.54215 0.6958,2.03857 0.46387,0.49642 1.04574,0.74463 1.74561,0.74463 0.71288,0 1.29964,-0.25065 1.76025,-0.75195 0.46061,-0.5013 0.69091,-1.21257 0.69092,-2.13379 -1e-5,-0.58268 -0.0985,-1.09131 -0.29541,-1.52588 -0.19695,-0.43457 -0.48503,-0.77148 -0.86426,-1.01074 -0.37923,-0.23926 -0.80485,-0.35888 -1.27685,-0.35889 -0.67058,1e-5 -1.24756,0.23031 -1.73096,0.69092 -0.4834,0.46061 -0.7251,1.22966 -0.7251,2.30713 z"
             style="font-size:10px;fill:#000000;font-family:Arial"
             id="path3391"
             inkscape:connector-curvature="0" />
          <path
             d="m 269.54422,187.87 0,-7.15821 0.94727,0 0,2.93946 3.7207,0 0,-2.93946 0.94726,0 0,7.15821 -0.94726,0 0,-3.37403 -3.7207,0 0,3.37403 z"
             style="font-size:10px;fill:#000000;font-family:Arial"
             id="path3393"
             inkscape:connector-curvature="0" />
        </g>
      </g>
      <g
         id="g296">
        <path
           d="m 252.74,191.54 0,0 -0.3,-0.17 0,-0.35 7.72,-4.45 0.15,0.26 0.15,0.26 z"
           shape-rendering="geometricPrecision"
           id="path298"
           inkscape:connector-curvature="0"
           style="fill:#000000;fill-rule:evenodd;stroke:#000000;stroke-width:0;stroke-linejoin:miter" />
      </g>
      <g
         id="g300">
        <g
           style="text-anchor:start"
           id="text302">
          <path
             d="m 261.4534,213.13367 c 0,-1.18815 0.31901,-2.11832 0.95703,-2.79053 0.63802,-0.67219 1.46159,-1.00829 2.4707,-1.0083 0.66081,10e-6 1.25651,0.15788 1.78711,0.47363 0.5306,0.31576 0.93506,0.75603 1.21338,1.3208 0.27832,0.56479 0.41748,1.20525 0.41748,1.92139 0,0.72591 -0.14649,1.37533 -0.43945,1.94824 -0.29298,0.57292 -0.70801,1.00668 -1.24512,1.30127 -0.53711,0.2946 -1.11654,0.4419 -1.73828,0.4419 -0.67383,0 -1.27604,-0.16276 -1.80664,-0.48829 -0.5306,-0.32552 -0.93262,-0.76985 -1.20605,-1.333 -0.27344,-0.56315 -0.41016,-1.15885 -0.41016,-1.78711 z m 0.97656,0.0147 c 0,0.86263 0.23193,1.54215 0.6958,2.03857 0.46387,0.49642 1.04574,0.74463 1.74561,0.74463 0.71288,0 1.29964,-0.25065 1.76025,-0.75195 0.46061,-0.5013 0.69091,-1.21257 0.69092,-2.13379 -1e-5,-0.58268 -0.0985,-1.09131 -0.29541,-1.52588 -0.19695,-0.43457 -0.48503,-0.77148 -0.86426,-1.01074 -0.37923,-0.23926 -0.80485,-0.35888 -1.27685,-0.35889 -0.67058,1e-5 -1.24756,0.23031 -1.73096,0.69092 -0.4834,0.46061 -0.7251,1.22966 -0.7251,2.30713 z"
             style="font-size:10px;fill:#000000;font-family:Arial"
             id="path3396"
             inkscape:connector-curvature="0" />
          <path
             d="m 269.54422,216.62 0,-7.15821 0.94727,0 0,2.93946 3.7207,0 0,-2.93946 0.94726,0 0,7.15821 -0.94726,0 0,-3.37403 -3.7207,0 0,3.37403 z"
             style="font-size:10px;fill:#000000;font-family:Arial"
             id="path3398"
             inkscape:connector-curvature="0" />
        </g>
      </g>
      <g
         id="g306">
        <path
           d="m 252.44,206.12 0,0 0,-0.35 0.3,-0.17 7.82,4.52 -0.15,0.26 -0.15,0.26 z"
           shape-rendering="geometricPrecision"
           id="path308"
           inkscape:connector-curvature="0"
           style="fill:#000000;fill-rule:evenodd;stroke:#000000;stroke-width:0;stroke-linejoin:miter" />
      </g>
      <g
         id="g310">
        <g
           style="text-anchor:start"
           id="text312">
          <path
             d="m 236.55341,227.51367 c 0,-1.18814 0.31901,-2.11832 0.95703,-2.79053 0.63802,-0.67219 1.46158,-1.00829 2.4707,-1.0083 0.6608,1e-5 1.25651,0.15789 1.78711,0.47364 0.53059,0.31576 0.93505,0.75602 1.21338,1.3208 0.27831,0.56478 0.41747,1.20524 0.41748,1.92138 -1e-5,0.72592 -0.14649,1.37533 -0.43945,1.94825 -0.29298,0.57291 -0.70802,1.00667 -1.24512,1.30127 -0.53712,0.29459 -1.11654,0.44189 -1.73828,0.44189 -0.67383,0 -1.27605,-0.16276 -1.80664,-0.48828 -0.5306,-0.32552 -0.93262,-0.76986 -1.20606,-1.33301 -0.27344,-0.56315 -0.41015,-1.15885 -0.41015,-1.78711 z m 0.97656,0.0147 c 0,0.86263 0.23193,1.54216 0.6958,2.03857 0.46386,0.49642 1.04573,0.74463 1.7456,0.74463 0.71289,0 1.29964,-0.25065 1.76026,-0.75195 0.4606,-0.5013 0.69091,-1.21256 0.69092,-2.13379 -1e-5,-0.58268 -0.0985,-1.0913 -0.29541,-1.52588 -0.19695,-0.43456 -0.48504,-0.77148 -0.86426,-1.01074 -0.37924,-0.23925 -0.80486,-0.35888 -1.27686,-0.35889 -0.67057,1e-5 -1.24756,0.23032 -1.73095,0.69092 -0.4834,0.46062 -0.7251,1.22966 -0.7251,2.30713 z"
             style="font-size:10px;fill:#000000;font-family:Arial"
             id="path3401"
             inkscape:connector-curvature="0" />
          <path
             d="m 244.64423,231 0,-7.1582 0.94726,0 0,2.93945 3.7207,0 0,-2.93945 0.94727,0 0,7.1582 -0.94727,0 0,-3.37402 -3.7207,0 0,3.37402 z"
             style="font-size:10px;fill:#000000;font-family:Arial"
             id="path3403"
             inkscape:connector-curvature="0" />
        </g>
      </g>
      <g
         id="g316">
        <path
           d="m 239.67,213.14 0,0 0.3,-0.17 0.3,0.17 0,9.06 -0.3,0 -0.3,0 z"
           shape-rendering="geometricPrecision"
           id="path318"
           inkscape:connector-curvature="0"
           style="fill:#000000;fill-rule:evenodd;stroke:#000000;stroke-width:0;stroke-linejoin:miter" />
      </g>
      <g
         id="g320">
        <g
           style="text-anchor:start"
           id="text322">
          <path
             d="m 99.673401,205.93367 c -10e-7,-1.18815 0.319009,-2.11832 0.957029,-2.79053 0.63802,-0.67219 1.46159,-1.00829 2.47071,-1.0083 0.6608,1e-5 1.2565,0.15789 1.7871,0.47363 0.5306,0.31577 0.93506,0.75603 1.21338,1.32081 0.27832,0.56478 0.41748,1.20524 0.41748,1.92138 0,0.72592 -0.14649,1.37533 -0.43945,1.94824 -0.29297,0.57292 -0.70801,1.00668 -1.24512,1.30127 -0.53711,0.2946 -1.11654,0.4419 -1.73828,0.4419 -0.67383,0 -1.27604,-0.16276 -1.80664,-0.48828 -0.5306,-0.32552 -0.93262,-0.76986 -1.20605,-1.33301 -0.273441,-0.56315 -0.41016,-1.15885 -0.410159,-1.78711 z m 0.976559,0.0146 c 0,0.86263 0.23194,1.54216 0.6958,2.03857 0.46387,0.49642 1.04574,0.74463 1.74561,0.74463 0.71289,0 1.29964,-0.25065 1.76025,-0.75195 0.46061,-0.5013 0.69092,-1.21256 0.69092,-2.13379 0,-0.58268 -0.0985,-1.0913 -0.29541,-1.52588 -0.19694,-0.43456 -0.48503,-0.77148 -0.86426,-1.01074 -0.37923,-0.23925 -0.80485,-0.35888 -1.27685,-0.35889 -0.67058,1e-5 -1.24756,0.23031 -1.73096,0.69092 -0.4834,0.46062 -0.7251,1.22966 -0.7251,2.30713 z"
             style="font-size:10px;fill:#000000;font-family:Arial"
             id="path3406"
             inkscape:connector-curvature="0" />
          <path
             d="m 107.76422,209.42 0,-7.1582 0.94727,0 0,2.93945 3.7207,0 0,-2.93945 0.94727,0 0,7.1582 -0.94727,0 0,-3.37403 -3.7207,0 0,3.37403 z"
             style="font-size:10px;fill:#000000;font-family:Arial"
             id="path3408"
             inkscape:connector-curvature="0" />
        </g>
      </g>
      <g
         id="g326">
        <path
           d="m 102.8,191.57 0,0 0.3,-0.17 0.3,0.17 0,9.03 -0.3,0 -0.3,0 z"
           shape-rendering="geometricPrecision"
           id="path328"
           inkscape:connector-curvature="0"
           style="fill:#000000;fill-rule:evenodd;stroke:#000000;stroke-width:0;stroke-linejoin:miter" />
      </g>
      <g
         id="g330">
        <g
           style="text-anchor:end"
           id="text332">
          <path
             d="m 67.910782,195.05 0,-7.1582 0.947265,0 0,2.93945 3.720704,0 0,-2.93945 0.947265,0 0,7.1582 -0.947265,0 0,-3.37402 -3.720704,0 0,3.37402 z"
             style="font-size:10px;fill:#000000;font-family:Arial"
             id="path3411"
             inkscape:connector-curvature="0" />
          <path
             d="m 74.819962,191.56367 c -10e-7,-1.18814 0.319009,-2.11832 0.957031,-2.79052 0.638019,-0.6722 1.461585,-1.0083 2.470703,-1.0083 0.660803,0 1.256505,0.15788 1.787109,0.47363 0.530593,0.31576 0.935052,0.75603 1.213379,1.3208 0.278313,0.56478 0.417473,1.20525 0.417481,1.92139 -8e-6,0.72591 -0.146492,1.37532 -0.439453,1.94824 -0.292976,0.57292 -0.708014,1.00667 -1.245118,1.30127 -0.537114,0.2946 -1.116541,0.44189 -1.738281,0.44189 -0.673831,0 -1.276044,-0.16276 -1.806641,-0.48828 -0.5306,-0.32552 -0.932618,-0.76985 -1.206054,-1.33301 -0.273438,-0.56314 -0.410157,-1.15885 -0.410156,-1.78711 z m 0.976562,0.0146 c -1e-6,0.86264 0.231932,1.54216 0.695801,2.03858 0.463864,0.49642 1.045732,0.74463 1.745605,0.74463 0.712886,0 1.299637,-0.25065 1.760254,-0.75196 0.460606,-0.5013 0.690912,-1.21256 0.690918,-2.13379 -6e-6,-0.58267 -0.09848,-1.0913 -0.29541,-1.52587 -0.196946,-0.43457 -0.485032,-0.77148 -0.864258,-1.01075 -0.379236,-0.23925 -0.804854,-0.35888 -1.276855,-0.35888 -0.670576,0 -1.247562,0.23031 -1.730957,0.69091 -0.4834,0.46062 -0.725099,1.22966 -0.725098,2.30713 z"
             style="font-size:10px;fill:#000000;font-family:Arial"
             id="path3413"
             inkscape:connector-curvature="0" />
        </g>
      </g>
      <g
         id="g336">
        <path
           d="m 90.33,184.03 0,0 0.3,0.17 0,0.35 -7.69,4.43 -0.15,-0.26 -0.15,-0.26 z"
           shape-rendering="geometricPrecision"
           id="path338"
           inkscape:connector-curvature="0"
           style="fill:#000000;fill-rule:evenodd;stroke:#000000;stroke-width:0;stroke-linejoin:miter" />
      </g>
      <g
         id="g340">
        <g
           style="text-anchor:end"
           id="text342">
          <path
             d="m 67.910782,166.3 0,-7.1582 0.947265,0 0,2.93945 3.720704,0 0,-2.93945 0.947265,0 0,7.1582 -0.947265,0 0,-3.37402 -3.720704,0 0,3.37402 z"
             style="font-size:10px;fill:#000000;font-family:Arial"
             id="path3416"
             inkscape:connector-curvature="0" />
          <path
             d="m 74.819962,162.81367 c -10e-7,-1.18814 0.319009,-2.11832 0.957031,-2.79052 0.638019,-0.6722 1.461585,-1.0083 2.470703,-1.0083 0.660803,0 1.256505,0.15788 1.787109,0.47363 0.530593,0.31576 0.935052,0.75603 1.213379,1.3208 0.278313,0.56478 0.417473,1.20525 0.417481,1.92139 -8e-6,0.72591 -0.146492,1.37532 -0.439453,1.94824 -0.292976,0.57292 -0.708014,1.00667 -1.245118,1.30127 -0.537114,0.2946 -1.116541,0.44189 -1.738281,0.44189 -0.673831,0 -1.276044,-0.16276 -1.806641,-0.48828 -0.5306,-0.32552 -0.932618,-0.76985 -1.206054,-1.33301 -0.273438,-0.56314 -0.410157,-1.15885 -0.410156,-1.78711 z m 0.976562,0.0146 c -1e-6,0.86264 0.231932,1.54216 0.695801,2.03858 0.463864,0.49642 1.045732,0.74463 1.745605,0.74463 0.712886,0 1.299637,-0.25065 1.760254,-0.75196 0.460606,-0.5013 0.690912,-1.21256 0.690918,-2.13379 -6e-6,-0.58267 -0.09848,-1.0913 -0.29541,-1.52587 -0.196946,-0.43457 -0.485032,-0.77148 -0.864258,-1.01075 -0.379236,-0.23925 -0.804854,-0.35888 -1.276855,-0.35888 -0.670576,0 -1.247562,0.23031 -1.730957,0.69091 -0.4834,0.46062 -0.725099,1.22966 -0.725098,2.30713 z"
             style="font-size:10px;fill:#000000;font-family:Arial"
             id="path3418"
             inkscape:connector-curvature="0" />
        </g>
      </g>
      <g
         id="g346">
        <path
           d="m 90.63,169.45 0,0 0,0.35 -0.3,0.17 -7.59,-4.38 0.15,-0.26 0.15,-0.26 z"
           shape-rendering="geometricPrecision"
           id="path348"
           inkscape:connector-curvature="0"
           style="fill:#000000;fill-rule:evenodd;stroke:#000000;stroke-width:0;stroke-linejoin:miter" />
      </g>
    </g>
  </g>
</svg>
